PathFileType  4	(X/Y/Z) C:\Users\antoi\Documents\MyRepositories\mobilecap\ResultsAnalysis
DataRate	CameraRate	NumFrames	NumMarkers	Units	OrigDataRate	OrigDataStartFrame	OrigNumFrames
100.0	100.0	5	51	mm	100.0	63	125
Frame#	Time	r_knee			r_shank_antsup			r_ankle			r_calc			r_5meta			r_toe			L_knee			L_shank_antsup			L_ankle			L_calc			L_5meta			L_toe			r_sh2			r_sh3			r_sh4			L_sh2			L_sh3			r_thigh1			r_thigh2			r_thigh3			r_thigh4			r_thigh5			L_thigh1			L_thigh2			L_thigh3			L_thigh4			r.ASIS			r.PSIS			L.ASIS			L.PSIS			C7			R_Shoulder			L_Shoulder			R_Sternum			L_Sternum			R_humerus			R_elbow_med			R_elbow_lat			R_forearm			R_wrist_radius			R_wrist_ulna			L_humerus			L_elbow_med			L_elbow_lat			L_forearm			L_wrist_radius			L_wrist_ulna			R_HJC			L_HJC			R_HJC_reg			L_HJC_reg			
		X1	Y1	Z1	X2	Y2	Z2	X3	Y3	Z3	X4	Y4	Z4	X5	Y5	Z5	X6	Y6	Z6	X7	Y7	Z7	X8	Y8	Z8	X9	Y9	Z9	X10	Y10	Z10	X11	Y11	Z11	X12	Y12	Z12	X13	Y13	Z13	X14	Y14	Z14	X15	Y15	Z15	X16	Y16	Z16	X17	Y17	Z17	X18	Y18	Z18	X19	Y19	Z19	X20	Y20	Z20	X21	Y21	Z21	X22	Y22	Z22	X23	Y23	Z23	X24	Y24	Z24	X25	Y25	Z25	X26	Y26	Z26	X27	Y27	Z27	X28	Y28	Z28	X29	Y29	Z29	X30	Y30	Z30	X31	Y31	Z31	X32	Y32	Z32	X33	Y33	Z33	X34	Y34	Z34	X35	Y35	Z35	X36	Y36	Z36	X37	Y37	Z37	X38	Y38	Z38	X39	Y39	Z39	X40	Y40	Z40	X41	Y41	Z41	X42	Y42	Z42	X43	Y43	Z43	X44	Y44	Z44	X45	Y45	Z45	X46	Y46	Z46	X47	Y47	Z47	X48	Y48	Z48	X49	Y49	Z49	X50	Y50	Z50	X51	Y51	Z51	

63	0.62000000	592.27628	426.63493	-125.33274	543.88202	370.72942	-103.13750	297.82017	194.23115	-163.62976	240.26814	232.39575	-208.05384	302.38471	74.20772	-149.78620	350.12839	56.83554	-201.13673	837.45894	456.65101	-387.05180	875.11498	396.39329	-382.81251	870.13790	87.53510	-357.92877	801.78617	56.47795	-314.16120	967.57859	43.09370	-375.51088	1013.21967	73.58765	-319.98076	455.48726	300.04142	-109.43467	499.12772	425.56472	-128.82494	405.63142	358.97704	-139.87183	790.30274	389.77676	-414.35252	811.72310	269.55462	-411.43784	731.02052	722.24103	-121.78530	718.94960	609.34957	-112.98873	662.00831	595.05966	-82.31234	626.59959	733.66581	-75.86053	608.50741	619.04256	-87.90905	802.94913	745.48728	-414.78132	850.34038	615.02641	-400.65221	698.66147	705.20167	-446.94452	753.83842	573.82973	-426.36040	739.96332	874.98710	-124.62203	565.64854	894.63520	-217.79551	767.13752	890.34707	-382.59338	572.05855	889.94871	-325.62512	624.32882	1367.99608	-277.99798	679.31129	1312.42764	-123.76586	676.18951	1302.76372	-443.10279	737.13656	1279.31591	-258.25098	734.60853	1277.42025	-303.10517	712.22163	1081.51814	-36.20046	669.72066	967.98985	-71.15225	701.32666	995.56820	-9.43881	789.91951	908.49240	-20.84441	855.02148	810.15886	-37.64179	825.93783	789.00915	-10.89184	690.82207	1168.38491	-493.89385	601.01169	970.60641	-448.36298	605.02193	981.83304	-510.61266	614.47774	882.01592	-548.61490	585.35981	758.16690	-554.11972	549.05379	766.21003	-559.29940	680.63763	800.27884	-164.46927	704.23025	812.69092	-362.96646	682.49157	805.65823	-161.21237	692.65892	798.22881	-332.23810	
64	0.63000000	620.19433	424.26683	-124.26330	570.79229	370.20803	-101.83919	318.89213	203.06609	-162.73892	266.48840	247.09133	-207.95891	313.04046	82.64779	-149.59153	360.28769	60.81063	-199.72303	849.58727	458.01939	-388.82134	885.59428	396.42738	-384.40648	871.05763	87.66250	-358.38543	802.08374	56.98004	-314.32539	967.94196	42.15113	-375.72327	1014.26665	71.38493	-319.91505	479.94480	302.58888	-108.50285	528.42061	426.25048	-128.68639	432.44716	363.13782	-139.68663	800.88550	392.06939	-416.74380	818.84233	271.39927	-413.31685	748.87380	723.53637	-123.56705	741.23153	610.22269	-113.78613	684.66524	594.31569	-82.52862	644.28023	731.91733	-77.46610	630.50434	616.51400	-88.40189	817.57327	747.96477	-416.54310	864.12896	617.05254	-402.59094	713.11430	708.24423	-449.03655	767.48680	576.50491	-428.88786	754.38538	876.47669	-126.37657	580.17814	895.17237	-218.32656	781.42865	893.47249	-384.12996	586.47767	891.88311	-326.22149	639.25091	1369.71639	-280.27231	693.14981	1314.70235	-125.61692	692.94705	1304.38228	-444.81711	751.80151	1281.08072	-259.62659	749.63816	1279.07177	-304.38690	723.82690	1083.23873	-38.22756	680.91979	970.42436	-74.50363	711.58502	997.30146	-12.05079	798.53439	908.28757	-21.55090	861.51026	808.25393	-36.80703	831.48932	787.87094	-10.65094	709.13781	1169.90436	-494.67595	619.89617	971.46129	-449.89075	624.63948	982.34255	-512.12958	636.63817	882.30933	-549.28833	610.20637	757.80435	-554.24449	573.85585	765.08378	-559.78137	695.85735	801.50543	-166.22217	718.84182	815.41863	-364.69412	697.97830	806.03899	-163.75555	707.96372	800.83575	-334.78689	
65	0.64000000	648.68516	422.38925	-123.20754	598.71605	369.97230	-100.70493	341.56517	211.82110	-162.14784	293.72778	260.30287	-208.22486	327.07298	91.78926	-148.95994	373.72464	65.93775	-197.91733	860.22108	458.96618	-390.53093	894.69679	396.22884	-386.07272	871.72449	87.79451	-358.79001	802.27179	57.37530	-314.47919	968.17209	41.58293	-375.91818	1014.99433	69.80387	-319.86605	505.73277	305.19805	-107.63414	558.48911	427.05407	-128.39912	460.34803	367.16870	-139.23658	809.96352	393.93026	-418.62646	824.68845	272.94619	-414.74253	766.37764	725.20153	-125.12041	763.51626	611.57156	-114.46025	707.30914	594.02202	-82.62320	661.72940	730.37360	-78.87265	652.58344	614.31114	-88.82775	831.71533	750.00267	-418.36121	876.91789	618.42130	-404.51034	726.95276	711.20947	-450.92207	779.93341	578.91197	-431.14132	768.39606	878.21401	-128.06092	594.32440	895.79422	-219.00310	795.53269	896.64722	-385.60651	600.60050	893.86634	-326.88855	654.02195	1371.56846	-282.36059	706.77382	1317.06766	-127.33338	709.72386	1306.22907	-446.26133	766.25460	1282.90633	-260.76462	764.52908	1280.80292	-305.43013	735.31879	1085.09608	-40.16405	691.89979	973.03990	-77.70778	721.62738	999.21142	-14.55490	806.85380	908.28525	-22.13992	867.61722	806.54615	-35.85369	836.56794	786.98125	-10.38565	727.54390	1171.71524	-495.18271	638.88565	972.53571	-451.44249	644.49651	983.08525	-513.65466	659.39501	882.87660	-549.89944	635.91897	757.75402	-554.28461	599.60829	764.11813	-560.23184	710.70527	802.92542	-167.91689	733.24426	818.19925	-366.34559	713.13726	806.57191	-166.27857	723.08545	803.52896	-337.29824	
66	0.65000000	677.42454	421.21201	-122.18907	627.30127	370.14036	-99.77058	365.63760	220.33170	-161.94732	321.25518	271.61087	-208.92624	344.94741	101.17631	-147.80813	390.93988	71.99163	-195.76230	869.41183	459.48339	-392.11189	902.50566	395.79301	-387.76070	872.25708	87.91373	-359.10905	802.41787	57.71833	-314.61028	968.35958	41.22354	-376.08851	1015.55165	68.61209	-319.81776	532.53158	307.90133	-106.89643	588.91388	428.12439	-127.94525	488.96769	371.08142	-138.58808	817.58685	395.35585	-419.90623	829.37838	274.16656	-415.66752	783.47583	727.27474	-126.42642	785.50998	613.49026	-114.97656	729.65718	594.31771	-82.62236	678.88294	729.19026	-80.14736	674.50322	612.65837	-89.26380	845.36650	751.52052	-420.17904	888.69780	619.07232	-406.35062	740.17624	714.03054	-452.55251	791.17907	580.99237	-433.02033	782.06943	880.13157	-129.60700	608.15063	896.51407	-219.91495	809.52255	899.69606	-386.94340	614.50954	895.84239	-327.74748	668.63335	1373.50579	-284.26234	720.16011	1319.44362	-128.87688	726.47788	1308.22120	-447.42000	780.50266	1284.75842	-261.66059	779.25513	1282.57284	-306.23927	746.65966	1086.99845	-41.95470	702.67813	975.71011	-80.71239	731.45538	1001.19430	-16.90594	814.91173	908.42312	-22.57938	873.43438	805.02468	-34.77432	841.29664	786.31286	-10.07896	745.97600	1173.71386	-495.45512	657.95987	973.73834	-453.03920	664.56788	983.98714	-515.19905	682.64148	883.66632	-550.43954	662.42840	758.02088	-554.23785	626.23510	763.27844	-560.66374	725.16458	804.49536	-169.52194	747.51711	820.89520	-367.88808	727.96500	807.24385	-168.67497	738.04680	806.18955	-339.65216	
67	0.66000000	706.14345	420.90428	-121.21764	656.21990	370.81175	-99.02851	390.94327	228.34523	-162.14621	348.59104	280.77636	-210.04433	366.79273	110.26932	-146.14494	412.13252	78.56043	-193.33275	877.34920	459.64283	-393.49991	909.18598	395.17051	-389.39506	872.72667	88.02412	-359.32574	802.55682	58.04127	-314.71243	968.54428	40.97721	-376.22895	1016.02466	67.64794	-319.75012	560.02599	310.72242	-106.35378	619.33168	429.59988	-127.30991	517.96643	374.89338	-137.83956	823.92870	396.42673	-420.60327	833.10831	275.10375	-416.12669	800.20338	729.80569	-127.50476	806.99411	616.06578	-115.30542	751.51877	595.30725	-82.54867	695.74355	728.50516	-81.37505	696.07263	611.73913	-89.76657	858.55263	752.55512	-421.90630	899.55988	619.09553	-408.03356	752.83470	716.67834	-453.93349	801.38351	582.76543	-434.49856	795.47539	882.18037	-130.96329	621.72274	897.36927	-221.12537	823.41757	902.46202	-388.08638	628.27457	897.77406	-328.89373	683.08548	1375.50203	-285.98191	733.30376	1321.76672	-130.21371	743.15785	1310.28600	-448.29447	794.55082	1286.61688	-262.32222	793.79407	1284.35861	-306.82881	757.80625	1088.86380	-43.55499	713.29057	978.31348	-83.48248	741.08423	1003.15666	-19.07283	822.74326	908.64170	-22.84558	879.03279	803.67223	-33.56641	845.80629	785.83101	-9.70608	764.37000	1175.80665	-495.53143	677.10840	974.97968	-454.70082	684.83037	984.97846	-516.77436	706.27297	884.63583	-550.89131	689.65382	758.61541	-554.09655	653.63323	762.54049	-561.08449	739.21948	806.19069	-171.00734	761.70040	823.38699	-369.29555	742.44157	808.06440	-170.84016	752.83005	808.71208	-341.73665	
